<svg xmlns="http://www.w3.org/2000/svg" viewBox="0 0 630 115" fill="none" role="img" aria-label="pockemoney">
  <title>pockemoney</title>
  <defs>
    <filter id="pocke-shadow" x="-10%" y="-10%" width="130%" height="140%">
      <feDropShadow dx="0" dy="6" stdDeviation="5" flood-color="#000000" flood-opacity="0.45" />
      <feDropShadow dx="0" dy="4" stdDeviation="3" flood-color="#18446e" flood-opacity="0.35" />
    </filter>
  </defs>

  <!-- 포켓몬 로고 입체 타이포그래피 (Titan One 아웃라인 벡터 - 브라우저 폰트 변경/확장프로그램에도 100% 불변) -->
  <g transform="skewX(-4)" filter="url(#pocke-shadow)">
    <!-- 1. 3D 입체 하단 베이스 (#18446E) -->
    <path d="M42.8 91.68V40.8Q42.8 39.12 47.28 37.36Q51.76 35.6 56.96 35.6Q59.36 35.6 60.72 36.16Q62.08 36.72 62.400000000000006 37.28Q62.72 37.839999999999996 63.6 42.08H64.24000000000001Q64.4 41.36 65.68 39.84Q66.96000000000001 38.32 68.28 37.36Q69.6 36.4 72.08 35.64Q74.56 34.88 77.88 34.88Q81.2 34.88 83.92 36.36Q86.64 37.839999999999996 87.96000000000001 39.8Q89.28 41.76 90.04 44.76Q90.80000000000001 47.76 90.92 49.56Q91.03999999999999 51.36 91.03999999999999 54.76Q91.03999999999999 58.16 90.8 61.48Q90.56 64.8 89.92 68.24000000000001Q89.28 71.68 88.08 74.16Q86.88 76.64 85.03999999999999 78.64Q81.36 82.64 74.24000000000001 82.64Q71.68 82.64 69.72 81.88Q67.76 81.12 66.8 80.08Q64.8 77.92 64.48 76.24L64.4 75.44H63.760000000000005L64.88 82.64V91.68Q64.88 92.56 60.28 93.08Q55.68 93.6 50.84 93.6Q46.0 93.6 44.4 93.16Q42.8 92.72 42.8 91.68ZM64.4 47.92V68.88Q64.4 70.96 66.56 70.96Q69.36 70.96 69.36 58.56Q69.36 51.76 68.64 49.04Q67.92 46.32 66.47999999999999 46.32Q65.03999999999999 46.32 64.4 47.92Z M120.47999999999999 82.72Q114.47999999999999 82.72 110.16 81.68Q105.83999999999999 80.64 102.32 78.0Q95.03999999999999 72.72 95.03999999999999 58.32Q95.03999999999999 45.519999999999996 102.47999999999999 40.0Q109.44 34.88 120.47999999999999 34.88Q125.19999999999999 34.88 128.56 35.32Q131.92 35.76 135.39999999999998 37.2Q138.88 38.64 141.0 41.120000000000005Q143.12 43.6 144.48000000000002 47.96Q145.84 52.32 145.84 58.32Q145.84 70.48 138.95999999999998 76.6Q132.07999999999998 82.72 120.47999999999999 82.72ZM122.24 47.519999999999996Q121.52 46.48 120.52 46.48Q119.52 46.48 118.88 47.08Q118.24 47.68 117.67999999999999 50.599999999999994Q117.11999999999999 53.519999999999996 117.11999999999999 58.879999999999995Q117.11999999999999 64.24 117.67999999999999 67.12Q118.24 70.0 118.84 70.56Q119.44 71.12 120.44 71.12Q121.44 71.12 122.03999999999999 70.56Q122.63999999999999 70.0 123.16 67.12Q123.67999999999999 64.24 123.67999999999999 59.879999999999995Q123.67999999999999 55.519999999999996 123.47999999999999 53.16Q123.28 50.8 123.0 49.519999999999996Q122.72 48.24 122.24 47.519999999999996Z M160.96 80.64Q159.04 79.76 156.84 78.0Q154.64000000000001 76.24 153.20000000000002 73.84Q149.84 68.08 149.84 58.8Q149.84 53.04 151.68 48.519999999999996Q153.52 44.0 156.16000000000003 41.519999999999996Q158.8 39.04 162.24 37.44Q167.76 34.88 173.28 34.88Q182.56 34.88 186.2 36.32Q189.84 37.76 189.84 41.2Q189.84 44.64 188.60000000000002 48.519999999999996Q187.36 52.4 185.36 52.4Q184.72 52.4 181.48000000000002 51.04Q178.24 49.68 175.88 49.68Q173.52 49.68 172.28 51.56Q171.04 53.44 171.04 58.839999999999996Q171.04 64.24 172.16 66.19999999999999Q173.28 68.16 175.64 68.16Q178.0 68.16 181.52 66.56Q185.04000000000002 64.96000000000001 185.44 64.96000000000001Q186.96 64.96000000000001 188.36 68.56Q189.76 72.16 189.76 74.96Q189.76 79.28 185.28 81.0Q180.8 82.72 173.16000000000003 82.72Q165.52 82.72 160.96 80.64Z M194.64000000000001 80.08V24.72Q194.64000000000001 22.96 199.16000000000003 21.28Q203.68 19.6 208.88 19.6Q216.24 19.6 216.24 23.28V53.2H217.28Q221.12 34.88 222.96 34.88Q227.6 34.88 234.16 37.04Q240.72 39.199999999999996 240.72 41.839999999999996Q240.72 43.76 237.51999999999998 49.2Q234.32 54.64 230.88 58.08Q242.32 71.76 242.32 74.32Q242.32 76.72 235.04 80.16Q227.76 83.6 224.8 83.6Q223.36 83.6 221.76 80.12Q220.16 76.64 218.32 69.68L216.24 72.16V80.08Q216.24 80.96 211.76 81.47999999999999Q207.28 82.0 202.4 82.0Q197.52 82.0 196.08 81.56Q194.64000000000001 81.12 194.64000000000001 80.08Z M266.56 63.92Q266.56 69.12 271.52 69.12Q274.4 69.12 279.03999999999996 67.16Q283.68 65.2 283.92 65.2Q285.44 65.2 287.91999999999996 69.75999999999999Q290.4 74.32 290.4 76.48Q290.4 79.6 284.0 81.19999999999999Q277.6 82.8 271.48 82.8Q265.36 82.8 261.24 81.84Q257.12 80.88 254.51999999999998 79.4Q251.92 77.92 249.95999999999998 75.75999999999999Q248.0 73.6 247.04000000000002 71.64Q246.08 69.68 245.52 67.28Q244.72 63.76 244.72 60.0Q244.72 45.44 252.32 39.92Q256.08 37.12 260.72 36.0Q265.36 34.88 271.68 34.88Q291.92 34.88 291.92 48.96Q291.92 63.92 269.2 63.92ZM266.4 52.239999999999995V57.519999999999996Q268.72 57.519999999999996 270.20000000000005 55.68Q271.68 53.84 271.68 51.2Q271.68 46.4 269.2 46.4Q266.4 46.4 266.4 52.239999999999995Z M369.6 55.599999999999994V80.08Q369.6 80.96 365.08000000000004 81.47999999999999Q360.56 82.0 355.72 82.0Q350.88 82.0 349.44 81.56Q348.0 81.12 348.0 80.08V57.92Q348.0 46.48 345.68 46.48Q345.12 46.48 344.56 46.959999999999994Q344.0 47.44 344.0 48.64V80.08Q344.0 80.96 339.48 81.47999999999999Q334.96000000000004 82.0 330.08000000000004 82.0Q325.20000000000005 82.0 323.80000000000007 81.56Q322.40000000000003 81.12 322.40000000000003 80.08V57.92Q322.40000000000003 49.04 321.28000000000003 47.28Q320.72 46.48 319.84000000000003 46.48Q318.32 46.48 318.32 48.64V80.08Q318.32 80.96 313.76 81.47999999999999Q309.20000000000005 82.0 304.36 82.0Q299.52000000000004 82.0 298.12 81.56Q296.72 81.12 296.72 80.08V40.64Q296.72 38.96 301.32000000000005 37.28Q305.92 35.6 311.04 35.6Q316.16 35.6 316.8 38.56L317.52000000000004 42.08H318.08000000000004Q320.40000000000003 37.519999999999996 325.76 35.6Q328.0 34.88 331.52000000000004 34.88Q338.56 34.88 341.76 42.08Q342.8 39.68 346.96000000000004 37.28Q351.12 34.88 356.16 34.88Q364.08000000000004 34.88 366.84000000000003 39.8Q369.6 44.72 369.6 55.599999999999994Z M399.84000000000003 82.72Q393.84000000000003 82.72 389.52000000000004 81.68Q385.20000000000005 80.64 381.68 78.0Q374.40000000000003 72.72 374.40000000000003 58.32Q374.40000000000003 45.519999999999996 381.84000000000003 40.0Q388.8 34.88 399.84000000000003 34.88Q404.56000000000006 34.88 407.9200000000001 35.32Q411.28000000000003 35.76 414.76 37.2Q418.24 38.64 420.36 41.120000000000005Q422.48 43.6 423.84000000000003 47.96Q425.20000000000005 52.32 425.20000000000005 58.32Q425.20000000000005 70.48 418.32000000000005 76.6Q411.44000000000005 82.72 399.84000000000003 82.72ZM401.6 47.519999999999996Q400.88000000000005 46.48 399.88000000000005 46.48Q398.88000000000005 46.48 398.24 47.08Q397.6 47.68 397.04 50.599999999999994Q396.48 53.519999999999996 396.48 58.879999999999995Q396.48 64.24 397.04 67.12Q397.6 70.0 398.20000000000005 70.56Q398.8 71.12 399.8 71.12Q400.8 71.12 401.40000000000003 70.56Q402.00000000000006 70.0 402.52000000000004 67.12Q403.04 64.24 403.04 59.879999999999995Q403.04 55.519999999999996 402.84000000000003 53.16Q402.64000000000004 50.8 402.36 49.519999999999996Q402.08000000000004 48.24 401.6 47.519999999999996Z M478.24000000000007 55.44V80.08Q478.24000000000007 80.96 473.68000000000006 81.47999999999999Q469.12000000000006 82.0 464.2800000000001 82.0Q459.44000000000005 82.0 458.0400000000001 81.56Q456.64000000000004 81.12 456.64000000000004 80.08V54.64Q456.64000000000004 51.04 456.36 49.92Q456.08000000000004 48.8 455.84000000000003 47.92Q455.28000000000003 46.4 453.84000000000003 46.4Q451.6 46.4 451.6 48.56V80.08Q451.6 80.96 447.08000000000004 81.47999999999999Q442.56000000000006 82.0 437.72 82.0Q432.88000000000005 82.0 431.44000000000005 81.56Q430.00000000000006 81.12 430.00000000000006 80.08V40.64Q430.00000000000006 38.96 434.6 37.28Q439.20000000000005 35.6 444.32000000000005 35.6Q449.44000000000005 35.6 450.08000000000004 38.56L450.80000000000007 42.08H451.36000000000007Q453.68000000000006 37.44 459.36000000000007 35.6Q461.68000000000006 34.88 464.48 34.88Q472.56000000000006 34.88 475.4000000000001 39.72Q478.24000000000007 44.56 478.24000000000007 55.44Z M504.88000000000005 63.92Q504.88000000000005 69.12 509.8400000000001 69.12Q512.72 69.12 517.3600000000001 67.16Q522.0000000000001 65.2 522.2400000000001 65.2Q523.7600000000001 65.2 526.24 69.75999999999999Q528.72 74.32 528.72 76.48Q528.72 79.6 522.32 81.19999999999999Q515.9200000000001 82.8 509.80000000000007 82.8Q503.68000000000006 82.8 499.56000000000006 81.84Q495.44000000000005 80.88 492.84000000000003 79.4Q490.24000000000007 77.92 488.2800000000001 75.75999999999999Q486.32000000000005 73.6 485.36000000000007 71.64Q484.4000000000001 69.68 483.8400000000001 67.28Q483.0400000000001 63.76 483.0400000000001 60.0Q483.0400000000001 45.44 490.6400000000001 39.92Q494.4000000000001 37.12 499.0400000000001 36.0Q503.68000000000006 34.88 510.00000000000006 34.88Q530.2400000000001 34.88 530.2400000000001 48.96Q530.2400000000001 63.92 507.5200000000001 63.92ZM504.7200000000001 52.239999999999995V57.519999999999996Q507.0400000000001 57.519999999999996 508.5200000000001 55.68Q510.00000000000006 53.84 510.00000000000006 51.2Q510.00000000000006 46.4 507.5200000000001 46.4Q504.7200000000001 46.4 504.7200000000001 52.239999999999995Z M562.0000000000001 76.8V72.08H561.3600000000001Q560.9600000000002 72.48 560.1600000000001 73.12Q559.3600000000001 73.76 556.4000000000001 74.80000000000001Q553.4400000000002 75.84 549.8000000000002 75.84Q546.1600000000001 75.84 543.4000000000001 74.68Q540.6400000000001 73.52 539.0400000000002 71.56Q537.4400000000002 69.6 536.5600000000002 66.32Q535.0400000000001 61.120000000000005 535.0400000000001 51.599999999999994V40.56Q535.0400000000001 38.88 539.7600000000001 37.24Q544.4800000000001 35.6 549.6800000000002 35.6Q556.6400000000001 35.6 556.6400000000001 39.199999999999996V49.28Q556.6400000000001 65.28 559.2000000000002 65.28Q560.7200000000001 65.28 560.7200000000001 63.120000000000005V40.56Q560.7200000000001 38.88 565.7600000000002 37.24Q570.8000000000002 35.6 576.5600000000002 35.6Q582.3200000000002 35.6 582.3200000000002 38.72V76.56Q582.3200000000002 94.4 558.1600000000001 94.4Q545.4400000000002 94.4 540.8800000000001 91.92Q538.8800000000001 90.8 538.8800000000001 89.6Q538.8800000000001 87.68 540.4800000000001 83.16Q542.0800000000002 78.64 543.4400000000002 78.64Q543.7600000000001 78.64 545.6800000000002 79.12Q551.6000000000001 80.72 555.5600000000002 80.72Q559.5200000000001 80.72 560.7600000000001 79.84Q562.0000000000001 78.96 562.0000000000001 76.8Z" transform="translate(0, 5)" fill="#18446E" stroke="#18446E" stroke-width="6" stroke-linejoin="round" stroke-linecap="round" />

    <!-- 2. 외곽선 스트로크 (#2A75BB) -->
    <path d="M42.8 91.68V40.8Q42.8 39.12 47.28 37.36Q51.76 35.6 56.96 35.6Q59.36 35.6 60.72 36.16Q62.08 36.72 62.400000000000006 37.28Q62.72 37.839999999999996 63.6 42.08H64.24000000000001Q64.4 41.36 65.68 39.84Q66.96000000000001 38.32 68.28 37.36Q69.6 36.4 72.08 35.64Q74.56 34.88 77.88 34.88Q81.2 34.88 83.92 36.36Q86.64 37.839999999999996 87.96000000000001 39.8Q89.28 41.76 90.04 44.76Q90.80000000000001 47.76 90.92 49.56Q91.03999999999999 51.36 91.03999999999999 54.76Q91.03999999999999 58.16 90.8 61.48Q90.56 64.8 89.92 68.24000000000001Q89.28 71.68 88.08 74.16Q86.88 76.64 85.03999999999999 78.64Q81.36 82.64 74.24000000000001 82.64Q71.68 82.64 69.72 81.88Q67.76 81.12 66.8 80.08Q64.8 77.92 64.48 76.24L64.4 75.44H63.760000000000005L64.88 82.64V91.68Q64.88 92.56 60.28 93.08Q55.68 93.6 50.84 93.6Q46.0 93.6 44.4 93.16Q42.8 92.72 42.8 91.68ZM64.4 47.92V68.88Q64.4 70.96 66.56 70.96Q69.36 70.96 69.36 58.56Q69.36 51.76 68.64 49.04Q67.92 46.32 66.47999999999999 46.32Q65.03999999999999 46.32 64.4 47.92Z M120.47999999999999 82.72Q114.47999999999999 82.72 110.16 81.68Q105.83999999999999 80.64 102.32 78.0Q95.03999999999999 72.72 95.03999999999999 58.32Q95.03999999999999 45.519999999999996 102.47999999999999 40.0Q109.44 34.88 120.47999999999999 34.88Q125.19999999999999 34.88 128.56 35.32Q131.92 35.76 135.39999999999998 37.2Q138.88 38.64 141.0 41.120000000000005Q143.12 43.6 144.48000000000002 47.96Q145.84 52.32 145.84 58.32Q145.84 70.48 138.95999999999998 76.6Q132.07999999999998 82.72 120.47999999999999 82.72ZM122.24 47.519999999999996Q121.52 46.48 120.52 46.48Q119.52 46.48 118.88 47.08Q118.24 47.68 117.67999999999999 50.599999999999994Q117.11999999999999 53.519999999999996 117.11999999999999 58.879999999999995Q117.11999999999999 64.24 117.67999999999999 67.12Q118.24 70.0 118.84 70.56Q119.44 71.12 120.44 71.12Q121.44 71.12 122.03999999999999 70.56Q122.63999999999999 70.0 123.16 67.12Q123.67999999999999 64.24 123.67999999999999 59.879999999999995Q123.67999999999999 55.519999999999996 123.47999999999999 53.16Q123.28 50.8 123.0 49.519999999999996Q122.72 48.24 122.24 47.519999999999996Z M160.96 80.64Q159.04 79.76 156.84 78.0Q154.64000000000001 76.24 153.20000000000002 73.84Q149.84 68.08 149.84 58.8Q149.84 53.04 151.68 48.519999999999996Q153.52 44.0 156.16000000000003 41.519999999999996Q158.8 39.04 162.24 37.44Q167.76 34.88 173.28 34.88Q182.56 34.88 186.2 36.32Q189.84 37.76 189.84 41.2Q189.84 44.64 188.60000000000002 48.519999999999996Q187.36 52.4 185.36 52.4Q184.72 52.4 181.48000000000002 51.04Q178.24 49.68 175.88 49.68Q173.52 49.68 172.28 51.56Q171.04 53.44 171.04 58.839999999999996Q171.04 64.24 172.16 66.19999999999999Q173.28 68.16 175.64 68.16Q178.0 68.16 181.52 66.56Q185.04000000000002 64.96000000000001 185.44 64.96000000000001Q186.96 64.96000000000001 188.36 68.56Q189.76 72.16 189.76 74.96Q189.76 79.28 185.28 81.0Q180.8 82.72 173.16000000000003 82.72Q165.52 82.72 160.96 80.64Z M194.64000000000001 80.08V24.72Q194.64000000000001 22.96 199.16000000000003 21.28Q203.68 19.6 208.88 19.6Q216.24 19.6 216.24 23.28V53.2H217.28Q221.12 34.88 222.96 34.88Q227.6 34.88 234.16 37.04Q240.72 39.199999999999996 240.72 41.839999999999996Q240.72 43.76 237.51999999999998 49.2Q234.32 54.64 230.88 58.08Q242.32 71.76 242.32 74.32Q242.32 76.72 235.04 80.16Q227.76 83.6 224.8 83.6Q223.36 83.6 221.76 80.12Q220.16 76.64 218.32 69.68L216.24 72.16V80.08Q216.24 80.96 211.76 81.47999999999999Q207.28 82.0 202.4 82.0Q197.52 82.0 196.08 81.56Q194.64000000000001 81.12 194.64000000000001 80.08Z M266.56 63.92Q266.56 69.12 271.52 69.12Q274.4 69.12 279.03999999999996 67.16Q283.68 65.2 283.92 65.2Q285.44 65.2 287.91999999999996 69.75999999999999Q290.4 74.32 290.4 76.48Q290.4 79.6 284.0 81.19999999999999Q277.6 82.8 271.48 82.8Q265.36 82.8 261.24 81.84Q257.12 80.88 254.51999999999998 79.4Q251.92 77.92 249.95999999999998 75.75999999999999Q248.0 73.6 247.04000000000002 71.64Q246.08 69.68 245.52 67.28Q244.72 63.76 244.72 60.0Q244.72 45.44 252.32 39.92Q256.08 37.12 260.72 36.0Q265.36 34.88 271.68 34.88Q291.92 34.88 291.92 48.96Q291.92 63.92 269.2 63.92ZM266.4 52.239999999999995V57.519999999999996Q268.72 57.519999999999996 270.20000000000005 55.68Q271.68 53.84 271.68 51.2Q271.68 46.4 269.2 46.4Q266.4 46.4 266.4 52.239999999999995Z M369.6 55.599999999999994V80.08Q369.6 80.96 365.08000000000004 81.47999999999999Q360.56 82.0 355.72 82.0Q350.88 82.0 349.44 81.56Q348.0 81.12 348.0 80.08V57.92Q348.0 46.48 345.68 46.48Q345.12 46.48 344.56 46.959999999999994Q344.0 47.44 344.0 48.64V80.08Q344.0 80.96 339.48 81.47999999999999Q334.96000000000004 82.0 330.08000000000004 82.0Q325.20000000000005 82.0 323.80000000000007 81.56Q322.40000000000003 81.12 322.40000000000003 80.08V57.92Q322.40000000000003 49.04 321.28000000000003 47.28Q320.72 46.48 319.84000000000003 46.48Q318.32 46.48 318.32 48.64V80.08Q318.32 80.96 313.76 81.47999999999999Q309.20000000000005 82.0 304.36 82.0Q299.52000000000004 82.0 298.12 81.56Q296.72 81.12 296.72 80.08V40.64Q296.72 38.96 301.32000000000005 37.28Q305.92 35.6 311.04 35.6Q316.16 35.6 316.8 38.56L317.52000000000004 42.08H318.08000000000004Q320.40000000000003 37.519999999999996 325.76 35.6Q328.0 34.88 331.52000000000004 34.88Q338.56 34.88 341.76 42.08Q342.8 39.68 346.96000000000004 37.28Q351.12 34.88 356.16 34.88Q364.08000000000004 34.88 366.84000000000003 39.8Q369.6 44.72 369.6 55.599999999999994Z M399.84000000000003 82.72Q393.84000000000003 82.72 389.52000000000004 81.68Q385.20000000000005 80.64 381.68 78.0Q374.40000000000003 72.72 374.40000000000003 58.32Q374.40000000000003 45.519999999999996 381.84000000000003 40.0Q388.8 34.88 399.84000000000003 34.88Q404.56000000000006 34.88 407.9200000000001 35.32Q411.28000000000003 35.76 414.76 37.2Q418.24 38.64 420.36 41.120000000000005Q422.48 43.6 423.84000000000003 47.96Q425.20000000000005 52.32 425.20000000000005 58.32Q425.20000000000005 70.48 418.32000000000005 76.6Q411.44000000000005 82.72 399.84000000000003 82.72ZM401.6 47.519999999999996Q400.88000000000005 46.48 399.88000000000005 46.48Q398.88000000000005 46.48 398.24 47.08Q397.6 47.68 397.04 50.599999999999994Q396.48 53.519999999999996 396.48 58.879999999999995Q396.48 64.24 397.04 67.12Q397.6 70.0 398.20000000000005 70.56Q398.8 71.12 399.8 71.12Q400.8 71.12 401.40000000000003 70.56Q402.00000000000006 70.0 402.52000000000004 67.12Q403.04 64.24 403.04 59.879999999999995Q403.04 55.519999999999996 402.84000000000003 53.16Q402.64000000000004 50.8 402.36 49.519999999999996Q402.08000000000004 48.24 401.6 47.519999999999996Z M478.24000000000007 55.44V80.08Q478.24000000000007 80.96 473.68000000000006 81.47999999999999Q469.12000000000006 82.0 464.2800000000001 82.0Q459.44000000000005 82.0 458.0400000000001 81.56Q456.64000000000004 81.12 456.64000000000004 80.08V54.64Q456.64000000000004 51.04 456.36 49.92Q456.08000000000004 48.8 455.84000000000003 47.92Q455.28000000000003 46.4 453.84000000000003 46.4Q451.6 46.4 451.6 48.56V80.08Q451.6 80.96 447.08000000000004 81.47999999999999Q442.56000000000006 82.0 437.72 82.0Q432.88000000000005 82.0 431.44000000000005 81.56Q430.00000000000006 81.12 430.00000000000006 80.08V40.64Q430.00000000000006 38.96 434.6 37.28Q439.20000000000005 35.6 444.32000000000005 35.6Q449.44000000000005 35.6 450.08000000000004 38.56L450.80000000000007 42.08H451.36000000000007Q453.68000000000006 37.44 459.36000000000007 35.6Q461.68000000000006 34.88 464.48 34.88Q472.56000000000006 34.88 475.4000000000001 39.72Q478.24000000000007 44.56 478.24000000000007 55.44Z M504.88000000000005 63.92Q504.88000000000005 69.12 509.8400000000001 69.12Q512.72 69.12 517.3600000000001 67.16Q522.0000000000001 65.2 522.2400000000001 65.2Q523.7600000000001 65.2 526.24 69.75999999999999Q528.72 74.32 528.72 76.48Q528.72 79.6 522.32 81.19999999999999Q515.9200000000001 82.8 509.80000000000007 82.8Q503.68000000000006 82.8 499.56000000000006 81.84Q495.44000000000005 80.88 492.84000000000003 79.4Q490.24000000000007 77.92 488.2800000000001 75.75999999999999Q486.32000000000005 73.6 485.36000000000007 71.64Q484.4000000000001 69.68 483.8400000000001 67.28Q483.0400000000001 63.76 483.0400000000001 60.0Q483.0400000000001 45.44 490.6400000000001 39.92Q494.4000000000001 37.12 499.0400000000001 36.0Q503.68000000000006 34.88 510.00000000000006 34.88Q530.2400000000001 34.88 530.2400000000001 48.96Q530.2400000000001 63.92 507.5200000000001 63.92ZM504.7200000000001 52.239999999999995V57.519999999999996Q507.0400000000001 57.519999999999996 508.5200000000001 55.68Q510.00000000000006 53.84 510.00000000000006 51.2Q510.00000000000006 46.4 507.5200000000001 46.4Q504.7200000000001 46.4 504.7200000000001 52.239999999999995Z M562.0000000000001 76.8V72.08H561.3600000000001Q560.9600000000002 72.48 560.1600000000001 73.12Q559.3600000000001 73.76 556.4000000000001 74.80000000000001Q553.4400000000002 75.84 549.8000000000002 75.84Q546.1600000000001 75.84 543.4000000000001 74.68Q540.6400000000001 73.52 539.0400000000002 71.56Q537.4400000000002 69.6 536.5600000000002 66.32Q535.0400000000001 61.120000000000005 535.0400000000001 51.599999999999994V40.56Q535.0400000000001 38.88 539.7600000000001 37.24Q544.4800000000001 35.6 549.6800000000002 35.6Q556.6400000000001 35.6 556.6400000000001 39.199999999999996V49.28Q556.6400000000001 65.28 559.2000000000002 65.28Q560.7200000000001 65.28 560.7200000000001 63.120000000000005V40.56Q560.7200000000001 38.88 565.7600000000002 37.24Q570.8000000000002 35.6 576.5600000000002 35.6Q582.3200000000002 35.6 582.3200000000002 38.72V76.56Q582.3200000000002 94.4 558.1600000000001 94.4Q545.4400000000002 94.4 540.8800000000001 91.92Q538.8800000000001 90.8 538.8800000000001 89.6Q538.8800000000001 87.68 540.4800000000001 83.16Q542.0800000000002 78.64 543.4400000000002 78.64Q543.7600000000001 78.64 545.6800000000002 79.12Q551.6000000000001 80.72 555.5600000000002 80.72Q559.5200000000001 80.72 560.7600000000001 79.84Q562.0000000000001 78.96 562.0000000000001 76.8Z" fill="#2A75BB" stroke="#2A75BB" stroke-width="5.5" stroke-linejoin="round" stroke-linecap="round" />

    <!-- 3. 메인 황금 옐로우 채우기 (#FFDE00) -->
    <path d="M42.8 91.68V40.8Q42.8 39.12 47.28 37.36Q51.76 35.6 56.96 35.6Q59.36 35.6 60.72 36.16Q62.08 36.72 62.400000000000006 37.28Q62.72 37.839999999999996 63.6 42.08H64.24000000000001Q64.4 41.36 65.68 39.84Q66.96000000000001 38.32 68.28 37.36Q69.6 36.4 72.08 35.64Q74.56 34.88 77.88 34.88Q81.2 34.88 83.92 36.36Q86.64 37.839999999999996 87.96000000000001 39.8Q89.28 41.76 90.04 44.76Q90.80000000000001 47.76 90.92 49.56Q91.03999999999999 51.36 91.03999999999999 54.76Q91.03999999999999 58.16 90.8 61.48Q90.56 64.8 89.92 68.24000000000001Q89.28 71.68 88.08 74.16Q86.88 76.64 85.03999999999999 78.64Q81.36 82.64 74.24000000000001 82.64Q71.68 82.64 69.72 81.88Q67.76 81.12 66.8 80.08Q64.8 77.92 64.48 76.24L64.4 75.44H63.760000000000005L64.88 82.64V91.68Q64.88 92.56 60.28 93.08Q55.68 93.6 50.84 93.6Q46.0 93.6 44.4 93.16Q42.8 92.72 42.8 91.68ZM64.4 47.92V68.88Q64.4 70.96 66.56 70.96Q69.36 70.96 69.36 58.56Q69.36 51.76 68.64 49.04Q67.92 46.32 66.47999999999999 46.32Q65.03999999999999 46.32 64.4 47.92Z M120.47999999999999 82.72Q114.47999999999999 82.72 110.16 81.68Q105.83999999999999 80.64 102.32 78.0Q95.03999999999999 72.72 95.03999999999999 58.32Q95.03999999999999 45.519999999999996 102.47999999999999 40.0Q109.44 34.88 120.47999999999999 34.88Q125.19999999999999 34.88 128.56 35.32Q131.92 35.76 135.39999999999998 37.2Q138.88 38.64 141.0 41.120000000000005Q143.12 43.6 144.48000000000002 47.96Q145.84 52.32 145.84 58.32Q145.84 70.48 138.95999999999998 76.6Q132.07999999999998 82.72 120.47999999999999 82.72ZM122.24 47.519999999999996Q121.52 46.48 120.52 46.48Q119.52 46.48 118.88 47.08Q118.24 47.68 117.67999999999999 50.599999999999994Q117.11999999999999 53.519999999999996 117.11999999999999 58.879999999999995Q117.11999999999999 64.24 117.67999999999999 67.12Q118.24 70.0 118.84 70.56Q119.44 71.12 120.44 71.12Q121.44 71.12 122.03999999999999 70.56Q122.63999999999999 70.0 123.16 67.12Q123.67999999999999 64.24 123.67999999999999 59.879999999999995Q123.67999999999999 55.519999999999996 123.47999999999999 53.16Q123.28 50.8 123.0 49.519999999999996Q122.72 48.24 122.24 47.519999999999996Z M160.96 80.64Q159.04 79.76 156.84 78.0Q154.64000000000001 76.24 153.20000000000002 73.84Q149.84 68.08 149.84 58.8Q149.84 53.04 151.68 48.519999999999996Q153.52 44.0 156.16000000000003 41.519999999999996Q158.8 39.04 162.24 37.44Q167.76 34.88 173.28 34.88Q182.56 34.88 186.2 36.32Q189.84 37.76 189.84 41.2Q189.84 44.64 188.60000000000002 48.519999999999996Q187.36 52.4 185.36 52.4Q184.72 52.4 181.48000000000002 51.04Q178.24 49.68 175.88 49.68Q173.52 49.68 172.28 51.56Q171.04 53.44 171.04 58.839999999999996Q171.04 64.24 172.16 66.19999999999999Q173.28 68.16 175.64 68.16Q178.0 68.16 181.52 66.56Q185.04000000000002 64.96000000000001 185.44 64.96000000000001Q186.96 64.96000000000001 188.36 68.56Q189.76 72.16 189.76 74.96Q189.76 79.28 185.28 81.0Q180.8 82.72 173.16000000000003 82.72Q165.52 82.72 160.96 80.64Z M194.64000000000001 80.08V24.72Q194.64000000000001 22.96 199.16000000000003 21.28Q203.68 19.6 208.88 19.6Q216.24 19.6 216.24 23.28V53.2H217.28Q221.12 34.88 222.96 34.88Q227.6 34.88 234.16 37.04Q240.72 39.199999999999996 240.72 41.839999999999996Q240.72 43.76 237.51999999999998 49.2Q234.32 54.64 230.88 58.08Q242.32 71.76 242.32 74.32Q242.32 76.72 235.04 80.16Q227.76 83.6 224.8 83.6Q223.36 83.6 221.76 80.12Q220.16 76.64 218.32 69.68L216.24 72.16V80.08Q216.24 80.96 211.76 81.47999999999999Q207.28 82.0 202.4 82.0Q197.52 82.0 196.08 81.56Q194.64000000000001 81.12 194.64000000000001 80.08Z M266.56 63.92Q266.56 69.12 271.52 69.12Q274.4 69.12 279.03999999999996 67.16Q283.68 65.2 283.92 65.2Q285.44 65.2 287.91999999999996 69.75999999999999Q290.4 74.32 290.4 76.48Q290.4 79.6 284.0 81.19999999999999Q277.6 82.8 271.48 82.8Q265.36 82.8 261.24 81.84Q257.12 80.88 254.51999999999998 79.4Q251.92 77.92 249.95999999999998 75.75999999999999Q248.0 73.6 247.04000000000002 71.64Q246.08 69.68 245.52 67.28Q244.72 63.76 244.72 60.0Q244.72 45.44 252.32 39.92Q256.08 37.12 260.72 36.0Q265.36 34.88 271.68 34.88Q291.92 34.88 291.92 48.96Q291.92 63.92 269.2 63.92ZM266.4 52.239999999999995V57.519999999999996Q268.72 57.519999999999996 270.20000000000005 55.68Q271.68 53.84 271.68 51.2Q271.68 46.4 269.2 46.4Q266.4 46.4 266.4 52.239999999999995Z M369.6 55.599999999999994V80.08Q369.6 80.96 365.08000000000004 81.47999999999999Q360.56 82.0 355.72 82.0Q350.88 82.0 349.44 81.56Q348.0 81.12 348.0 80.08V57.92Q348.0 46.48 345.68 46.48Q345.12 46.48 344.56 46.959999999999994Q344.0 47.44 344.0 48.64V80.08Q344.0 80.96 339.48 81.47999999999999Q334.96000000000004 82.0 330.08000000000004 82.0Q325.20000000000005 82.0 323.80000000000007 81.56Q322.40000000000003 81.12 322.40000000000003 80.08V57.92Q322.40000000000003 49.04 321.28000000000003 47.28Q320.72 46.48 319.84000000000003 46.48Q318.32 46.48 318.32 48.64V80.08Q318.32 80.96 313.76 81.47999999999999Q309.20000000000005 82.0 304.36 82.0Q299.52000000000004 82.0 298.12 81.56Q296.72 81.12 296.72 80.08V40.64Q296.72 38.96 301.32000000000005 37.28Q305.92 35.6 311.04 35.6Q316.16 35.6 316.8 38.56L317.52000000000004 42.08H318.08000000000004Q320.40000000000003 37.519999999999996 325.76 35.6Q328.0 34.88 331.52000000000004 34.88Q338.56 34.88 341.76 42.08Q342.8 39.68 346.96000000000004 37.28Q351.12 34.88 356.16 34.88Q364.08000000000004 34.88 366.84000000000003 39.8Q369.6 44.72 369.6 55.599999999999994Z M399.84000000000003 82.72Q393.84000000000003 82.72 389.52000000000004 81.68Q385.20000000000005 80.64 381.68 78.0Q374.40000000000003 72.72 374.40000000000003 58.32Q374.40000000000003 45.519999999999996 381.84000000000003 40.0Q388.8 34.88 399.84000000000003 34.88Q404.56000000000006 34.88 407.9200000000001 35.32Q411.28000000000003 35.76 414.76 37.2Q418.24 38.64 420.36 41.120000000000005Q422.48 43.6 423.84000000000003 47.96Q425.20000000000005 52.32 425.20000000000005 58.32Q425.20000000000005 70.48 418.32000000000005 76.6Q411.44000000000005 82.72 399.84000000000003 82.72ZM401.6 47.519999999999996Q400.88000000000005 46.48 399.88000000000005 46.48Q398.88000000000005 46.48 398.24 47.08Q397.6 47.68 397.04 50.599999999999994Q396.48 53.519999999999996 396.48 58.879999999999995Q396.48 64.24 397.04 67.12Q397.6 70.0 398.20000000000005 70.56Q398.8 71.12 399.8 71.12Q400.8 71.12 401.40000000000003 70.56Q402.00000000000006 70.0 402.52000000000004 67.12Q403.04 64.24 403.04 59.879999999999995Q403.04 55.519999999999996 402.84000000000003 53.16Q402.64000000000004 50.8 402.36 49.519999999999996Q402.08000000000004 48.24 401.6 47.519999999999996Z M478.24000000000007 55.44V80.08Q478.24000000000007 80.96 473.68000000000006 81.47999999999999Q469.12000000000006 82.0 464.2800000000001 82.0Q459.44000000000005 82.0 458.0400000000001 81.56Q456.64000000000004 81.12 456.64000000000004 80.08V54.64Q456.64000000000004 51.04 456.36 49.92Q456.08000000000004 48.8 455.84000000000003 47.92Q455.28000000000003 46.4 453.84000000000003 46.4Q451.6 46.4 451.6 48.56V80.08Q451.6 80.96 447.08000000000004 81.47999999999999Q442.56000000000006 82.0 437.72 82.0Q432.88000000000005 82.0 431.44000000000005 81.56Q430.00000000000006 81.12 430.00000000000006 80.08V40.64Q430.00000000000006 38.96 434.6 37.28Q439.20000000000005 35.6 444.32000000000005 35.6Q449.44000000000005 35.6 450.08000000000004 38.56L450.80000000000007 42.08H451.36000000000007Q453.68000000000006 37.44 459.36000000000007 35.6Q461.68000000000006 34.88 464.48 34.88Q472.56000000000006 34.88 475.4000000000001 39.72Q478.24000000000007 44.56 478.24000000000007 55.44Z M504.88000000000005 63.92Q504.88000000000005 69.12 509.8400000000001 69.12Q512.72 69.12 517.3600000000001 67.16Q522.0000000000001 65.2 522.2400000000001 65.2Q523.7600000000001 65.2 526.24 69.75999999999999Q528.72 74.32 528.72 76.48Q528.72 79.6 522.32 81.19999999999999Q515.9200000000001 82.8 509.80000000000007 82.8Q503.68000000000006 82.8 499.56000000000006 81.84Q495.44000000000005 80.88 492.84000000000003 79.4Q490.24000000000007 77.92 488.2800000000001 75.75999999999999Q486.32000000000005 73.6 485.36000000000007 71.64Q484.4000000000001 69.68 483.8400000000001 67.28Q483.0400000000001 63.76 483.0400000000001 60.0Q483.0400000000001 45.44 490.6400000000001 39.92Q494.4000000000001 37.12 499.0400000000001 36.0Q503.68000000000006 34.88 510.00000000000006 34.88Q530.2400000000001 34.88 530.2400000000001 48.96Q530.2400000000001 63.92 507.5200000000001 63.92ZM504.7200000000001 52.239999999999995V57.519999999999996Q507.0400000000001 57.519999999999996 508.5200000000001 55.68Q510.00000000000006 53.84 510.00000000000006 51.2Q510.00000000000006 46.4 507.5200000000001 46.4Q504.7200000000001 46.4 504.7200000000001 52.239999999999995Z M562.0000000000001 76.8V72.08H561.3600000000001Q560.9600000000002 72.48 560.1600000000001 73.12Q559.3600000000001 73.76 556.4000000000001 74.80000000000001Q553.4400000000002 75.84 549.8000000000002 75.84Q546.1600000000001 75.84 543.4000000000001 74.68Q540.6400000000001 73.52 539.0400000000002 71.56Q537.4400000000002 69.6 536.5600000000002 66.32Q535.0400000000001 61.120000000000005 535.0400000000001 51.599999999999994V40.56Q535.0400000000001 38.88 539.7600000000001 37.24Q544.4800000000001 35.6 549.6800000000002 35.6Q556.6400000000001 35.6 556.6400000000001 39.199999999999996V49.28Q556.6400000000001 65.28 559.2000000000002 65.28Q560.7200000000001 65.28 560.7200000000001 63.120000000000005V40.56Q560.7200000000001 38.88 565.7600000000002 37.24Q570.8000000000002 35.6 576.5600000000002 35.6Q582.3200000000002 35.6 582.3200000000002 38.72V76.56Q582.3200000000002 94.4 558.1600000000001 94.4Q545.4400000000002 94.4 540.8800000000001 91.92Q538.8800000000001 90.8 538.8800000000001 89.6Q538.8800000000001 87.68 540.4800000000001 83.16Q542.0800000000002 78.64 543.4400000000002 78.64Q543.7600000000001 78.64 545.6800000000002 79.12Q551.6000000000001 80.72 555.5600000000002 80.72Q559.5200000000001 80.72 560.7600000000001 79.84Q562.0000000000001 78.96 562.0000000000001 76.8Z" fill="#FFDE00" />
  </g>
</svg>